<svg xmlns="http://www.w3.org/2000/svg" viewBox="0 0 28 28">
  <defs>
    <filter id="shadow" x="-20%" y="-10%" width="140%" height="140%">
      <feDropShadow dx="0" dy="1" stdDeviation="1.5" flood-opacity="0.3" />
    </filter>
  </defs>
  <rect x="2" y="2" width="24" height="24" rx="6" fill="#5F6368" filter="url(#shadow)" />
  <svg x="2" y="2" width="24" height="24" viewBox="0 0 24 24">
    <path fill="#fff" d="M5 14l1.5-4h5L13 14v2H5v-2zm1.5.5a1 1 0 100 2 1 1 0 000-2zm5 0a1 1 0 100 2 1 1 0 000-2zM16 5l3 6h-6l3-6zm-.5 2.5v2h1v-2h-1zm0 2.5v1h1v-1h-1z"/>
  </svg>
</svg>
