<svg xmlns="http://www.w3.org/2000/svg" viewBox="0 0 28 28">
  <defs>
    <filter id="shadow" x="-20%" y="-10%" width="140%" height="140%">
      <feDropShadow dx="0" dy="1" stdDeviation="1.5" flood-opacity="0.3" />
    </filter>
  </defs>
  <rect x="2" y="2" width="24" height="24" rx="6" fill="#D93025" filter="url(#shadow)" />
  <svg x="2" y="2" width="24" height="24" viewBox="0 0 24 24">
    <path fill="#fff" d="M5 13l2-5h3l1 2h2l1-2h3l2 5v3h-1v1h-2v-1H8v1H6v-1H5v-3zm2.5 1a1 1 0 100 2 1 1 0 000-2zm9 0a1 1 0 100 2 1 1 0 000-2z"/>
  </svg>
</svg>
